<mxfile host="65bd71144e">
    <diagram id="q0cv9NEWTbPTgZD-_VkK" name="Page-1">
        <mxGraphModel dx="1639" dy="1888" grid="1" gridSize="10" guides="1" tooltips="1" connect="1" arrows="1" fold="1" page="1" pageScale="1" pageWidth="827" pageHeight="1169" background="#ffffff" math="0" shadow="0">
            <root>
                <mxCell id="0"/>
                <mxCell id="1" parent="0"/>
                <mxCell id="33" style="edgeStyle=none;html=1;exitX=0.5;exitY=1;exitDx=0;exitDy=0;entryX=0.5;entryY=0;entryDx=0;entryDy=0;labelBackgroundColor=#FFFFFF;strokeColor=#000000;fontSize=15;fontColor=#2b2b2b;" parent="1" target="3" edge="1">
                    <mxGeometry relative="1" as="geometry">
                        <mxPoint x="390" y="-30" as="sourcePoint"/>
                    </mxGeometry>
                </mxCell>
                <mxCell id="15" style="edgeStyle=none;html=1;exitX=0.5;exitY=1;exitDx=0;exitDy=0;entryX=0.5;entryY=0;entryDx=0;entryDy=0;labelBackgroundColor=#FFFFFF;strokeColor=#000000;fontSize=15;fontColor=#2b2b2b;" parent="1" source="3" target="13" edge="1">
                    <mxGeometry relative="1" as="geometry"/>
                </mxCell>
                <mxCell id="22" style="edgeStyle=none;html=1;exitX=1;exitY=0.5;exitDx=0;exitDy=0;entryX=0.5;entryY=0;entryDx=0;entryDy=0;labelBackgroundColor=#FFFFFF;strokeColor=#000000;fontSize=15;fontColor=#2b2b2b;" parent="1" source="3" target="19" edge="1">
                    <mxGeometry relative="1" as="geometry">
                        <Array as="points">
                            <mxPoint x="575" y="50"/>
                        </Array>
                    </mxGeometry>
                </mxCell>
                <mxCell id="32" style="edgeStyle=none;html=1;exitX=1;exitY=0.5;exitDx=0;exitDy=0;entryX=0.5;entryY=0;entryDx=0;entryDy=0;labelBackgroundColor=#FFFFFF;strokeColor=#000000;fontSize=15;fontColor=#2b2b2b;" parent="1" source="3" target="26" edge="1">
                    <mxGeometry relative="1" as="geometry">
                        <Array as="points">
                            <mxPoint x="765" y="50"/>
                        </Array>
                    </mxGeometry>
                </mxCell>
                <mxCell id="61" style="edgeStyle=none;html=1;exitX=0.005;exitY=0.646;exitDx=0;exitDy=0;entryX=0.5;entryY=0;entryDx=0;entryDy=0;labelBackgroundColor=#FFFFFF;strokeColor=#000000;fontSize=15;fontColor=#000000;exitPerimeter=0;" parent="1" source="3" target="60" edge="1">
                    <mxGeometry relative="1" as="geometry">
                        <Array as="points">
                            <mxPoint x="208" y="59"/>
                            <mxPoint x="208" y="380"/>
                            <mxPoint x="208" y="390"/>
                        </Array>
                    </mxGeometry>
                </mxCell>
                <mxCell id="3" value="&lt;font style=&quot;font-size: 14px;&quot;&gt;Головне меню&lt;/font&gt;" style="rounded=1;whiteSpace=wrap;html=1;fontColor=#000000;fillColor=#bebebe;" parent="1" vertex="1">
                    <mxGeometry x="330" y="20" width="120" height="60" as="geometry"/>
                </mxCell>
                <mxCell id="34" style="edgeStyle=none;html=1;exitX=0.5;exitY=1;exitDx=0;exitDy=0;entryX=-0.005;entryY=0.391;entryDx=0;entryDy=0;labelBackgroundColor=#FFFFFF;strokeColor=#000000;fontSize=15;fontColor=#2b2b2b;entryPerimeter=0;" parent="1" source="4" target="3" edge="1">
                    <mxGeometry relative="1" as="geometry">
                        <Array as="points">
                            <mxPoint x="110" y="380"/>
                            <mxPoint x="20" y="380"/>
                            <mxPoint x="20" y="210"/>
                            <mxPoint x="20" y="43"/>
                        </Array>
                    </mxGeometry>
                </mxCell>
                <mxCell id="4" value="&lt;font style=&quot;font-size: 14px;&quot;&gt;Оновлюємо показники&lt;/font&gt;" style="rounded=1;whiteSpace=wrap;html=1;fontColor=#000000;fillColor=#bebebe;" parent="1" vertex="1">
                    <mxGeometry x="50" y="290" width="120" height="60" as="geometry"/>
                </mxCell>
                <mxCell id="8" style="edgeStyle=none;html=1;exitX=1;exitY=0.5;exitDx=0;exitDy=0;fontSize=14;fontColor=#000000;strokeColor=#000000;entryX=-0.002;entryY=0.903;entryDx=0;entryDy=0;entryPerimeter=0;" parent="1" source="5" target="3" edge="1">
                    <mxGeometry relative="1" as="geometry">
                        <mxPoint x="330" y="70" as="targetPoint"/>
                        <Array as="points">
                            <mxPoint x="190" y="200"/>
                            <mxPoint x="190" y="130"/>
                            <mxPoint x="190" y="74"/>
                            <mxPoint x="220" y="74"/>
                            <mxPoint x="250" y="74"/>
                        </Array>
                    </mxGeometry>
                </mxCell>
                <mxCell id="12" value="&lt;span style=&quot;background-color: rgb(255, 255, 255);&quot;&gt;Ні&lt;/span&gt;" style="edgeLabel;html=1;align=center;verticalAlign=middle;resizable=0;points=[];fontSize=15;fontColor=#2b2b2b;" parent="8" vertex="1" connectable="0">
                    <mxGeometry x="-0.0808" y="1" relative="1" as="geometry">
                        <mxPoint x="1" y="38" as="offset"/>
                    </mxGeometry>
                </mxCell>
                <mxCell id="11" value="&lt;span style=&quot;background-color: rgb(255, 255, 255);&quot;&gt;Так&lt;/span&gt;" style="edgeStyle=none;html=1;entryX=0.5;entryY=0;entryDx=0;entryDy=0;strokeColor=#000000;fontSize=14;fontColor=#000000;" parent="1" source="5" target="4" edge="1">
                    <mxGeometry relative="1" as="geometry"/>
                </mxCell>
                <mxCell id="5" value="Оновити&lt;br&gt;показники" style="rhombus;whiteSpace=wrap;html=1;fontSize=14;fontColor=#000000;fillColor=#bebebe;" parent="1" vertex="1">
                    <mxGeometry x="45" y="150" width="130" height="100" as="geometry"/>
                </mxCell>
                <mxCell id="7" value="" style="endArrow=classic;html=1;fontSize=14;fontColor=#000000;exitX=0.002;exitY=0.666;exitDx=0;exitDy=0;entryX=0.5;entryY=0;entryDx=0;entryDy=0;strokeColor=#000000;exitPerimeter=0;" parent="1" source="3" target="5" edge="1">
                    <mxGeometry width="50" height="50" relative="1" as="geometry">
                        <mxPoint x="380" y="230" as="sourcePoint"/>
                        <mxPoint x="430" y="180" as="targetPoint"/>
                        <Array as="points">
                            <mxPoint x="110" y="60"/>
                        </Array>
                    </mxGeometry>
                </mxCell>
                <mxCell id="16" value="Так" style="edgeStyle=none;html=1;exitX=0.5;exitY=1;exitDx=0;exitDy=0;entryX=0.5;entryY=0;entryDx=0;entryDy=0;labelBackgroundColor=#FFFFFF;strokeColor=#000000;fontSize=15;fontColor=#2b2b2b;" parent="1" source="13" target="14" edge="1">
                    <mxGeometry relative="1" as="geometry"/>
                </mxCell>
                <mxCell id="17" style="edgeStyle=none;html=1;labelBackgroundColor=#FFFFFF;strokeColor=#000000;fontSize=15;fontColor=#2b2b2b;exitX=0;exitY=0.5;exitDx=0;exitDy=0;" parent="1" source="13" edge="1">
                    <mxGeometry relative="1" as="geometry">
                        <mxPoint x="320" y="190" as="sourcePoint"/>
                        <Array as="points">
                            <mxPoint x="230" y="200"/>
                            <mxPoint x="230" y="120"/>
                            <mxPoint x="230" y="74"/>
                        </Array>
                        <mxPoint x="330" y="74" as="targetPoint"/>
                    </mxGeometry>
                </mxCell>
                <mxCell id="18" value="&lt;span style=&quot;background-color: rgb(255, 255, 255);&quot;&gt;Ні&lt;/span&gt;" style="edgeLabel;html=1;align=center;verticalAlign=middle;resizable=0;points=[];fontSize=15;fontColor=#2b2b2b;" parent="17" vertex="1" connectable="0">
                    <mxGeometry x="0.4757" relative="1" as="geometry">
                        <mxPoint x="-16" y="55" as="offset"/>
                    </mxGeometry>
                </mxCell>
                <mxCell id="13" value="Почати режим&amp;nbsp;&lt;br&gt;freeplay" style="rhombus;whiteSpace=wrap;html=1;fontSize=14;fontColor=#000000;fillColor=#bebebe;" parent="1" vertex="1">
                    <mxGeometry x="315" y="150" width="150" height="100" as="geometry"/>
                </mxCell>
                <mxCell id="40" style="edgeStyle=none;html=1;exitX=0.5;exitY=1;exitDx=0;exitDy=0;entryX=0.5;entryY=0;entryDx=0;entryDy=0;labelBackgroundColor=#FFFFFF;strokeColor=#000000;fontSize=15;fontColor=#2b2b2b;" parent="1" source="14" target="36" edge="1">
                    <mxGeometry relative="1" as="geometry"/>
                </mxCell>
                <mxCell id="14" value="&lt;span style=&quot;font-size: 14px;&quot;&gt;Граємо у&amp;nbsp;&lt;/span&gt;&lt;span style=&quot;font-size: 14px;&quot;&gt;freeplay&lt;/span&gt;" style="rounded=1;whiteSpace=wrap;html=1;fontColor=#000000;fillColor=#bebebe;" parent="1" vertex="1">
                    <mxGeometry x="330" y="290" width="120" height="60" as="geometry"/>
                </mxCell>
                <mxCell id="21" style="edgeStyle=none;html=1;exitX=0.5;exitY=1;exitDx=0;exitDy=0;entryX=0.5;entryY=0;entryDx=0;entryDy=0;labelBackgroundColor=#FFFFFF;strokeColor=#000000;fontSize=15;fontColor=#2b2b2b;" parent="1" source="19" target="20" edge="1">
                    <mxGeometry relative="1" as="geometry"/>
                </mxCell>
                <mxCell id="25" value="&lt;span style=&quot;background-color: rgb(255, 255, 255);&quot;&gt;Так&lt;/span&gt;" style="edgeLabel;html=1;align=center;verticalAlign=middle;resizable=0;points=[];fontSize=15;fontColor=#2b2b2b;" parent="21" vertex="1" connectable="0">
                    <mxGeometry x="-0.4" y="-4" relative="1" as="geometry">
                        <mxPoint as="offset"/>
                    </mxGeometry>
                </mxCell>
                <mxCell id="23" style="edgeStyle=none;html=1;exitX=0;exitY=0.5;exitDx=0;exitDy=0;labelBackgroundColor=#FFFFFF;strokeColor=#000000;fontSize=15;fontColor=#2b2b2b;" parent="1" source="19" edge="1">
                    <mxGeometry relative="1" as="geometry">
                        <mxPoint x="450" y="70" as="targetPoint"/>
                        <Array as="points">
                            <mxPoint x="500" y="110"/>
                            <mxPoint x="500" y="70"/>
                        </Array>
                    </mxGeometry>
                </mxCell>
                <mxCell id="24" value="&lt;span style=&quot;background-color: rgb(255, 255, 255);&quot;&gt;Ні&lt;/span&gt;" style="edgeLabel;html=1;align=center;verticalAlign=middle;resizable=0;points=[];fontSize=15;fontColor=#2b2b2b;" parent="23" vertex="1" connectable="0">
                    <mxGeometry x="-0.3489" y="-4" relative="1" as="geometry">
                        <mxPoint as="offset"/>
                    </mxGeometry>
                </mxCell>
                <mxCell id="19" value="Почати режим&amp;nbsp;&lt;br&gt;countdown" style="rhombus;whiteSpace=wrap;html=1;fontSize=14;fontColor=#000000;fillColor=#bebebe;" parent="1" vertex="1">
                    <mxGeometry x="500" y="150" width="150" height="100" as="geometry"/>
                </mxCell>
                <mxCell id="41" style="edgeStyle=none;html=1;exitX=0.5;exitY=1;exitDx=0;exitDy=0;labelBackgroundColor=#FFFFFF;strokeColor=#000000;fontSize=15;fontColor=#2b2b2b;" parent="1" source="20" target="38" edge="1">
                    <mxGeometry relative="1" as="geometry"/>
                </mxCell>
                <mxCell id="20" value="&lt;span style=&quot;font-size: 14px;&quot;&gt;Граємо у&amp;nbsp;&lt;/span&gt;&lt;span style=&quot;font-size: 14px;&quot;&gt;countdown&lt;/span&gt;" style="rounded=1;whiteSpace=wrap;html=1;fontColor=#000000;fillColor=#bebebe;" parent="1" vertex="1">
                    <mxGeometry x="515" y="290" width="120" height="60" as="geometry"/>
                </mxCell>
                <mxCell id="28" value="Так" style="edgeStyle=none;html=1;exitX=0.5;exitY=1;exitDx=0;exitDy=0;entryX=0.5;entryY=0;entryDx=0;entryDy=0;labelBackgroundColor=#FFFFFF;strokeColor=#000000;fontSize=15;fontColor=#2b2b2b;" parent="1" source="26" target="27" edge="1">
                    <mxGeometry relative="1" as="geometry"/>
                </mxCell>
                <mxCell id="29" style="edgeStyle=none;html=1;labelBackgroundColor=#FFFFFF;strokeColor=#000000;fontSize=15;fontColor=#2b2b2b;exitX=0;exitY=0.5;exitDx=0;exitDy=0;" parent="1" source="26" edge="1">
                    <mxGeometry relative="1" as="geometry">
                        <mxPoint x="670" y="200" as="sourcePoint"/>
                        <mxPoint x="450" y="70" as="targetPoint"/>
                        <Array as="points">
                            <mxPoint x="670" y="200"/>
                            <mxPoint x="670" y="70"/>
                        </Array>
                    </mxGeometry>
                </mxCell>
                <mxCell id="30" value="&lt;span style=&quot;background-color: rgb(255, 255, 255);&quot;&gt;Ні&lt;/span&gt;" style="edgeLabel;html=1;align=center;verticalAlign=middle;resizable=0;points=[];fontSize=15;fontColor=#2b2b2b;" parent="29" vertex="1" connectable="0">
                    <mxGeometry x="-0.1165" y="-2" relative="1" as="geometry">
                        <mxPoint x="-2" y="-3" as="offset"/>
                    </mxGeometry>
                </mxCell>
                <mxCell id="26" value="Почати режим&amp;nbsp;&lt;br&gt;accuracy" style="rhombus;whiteSpace=wrap;html=1;fontSize=14;fontColor=#000000;fillColor=#bebebe;" parent="1" vertex="1">
                    <mxGeometry x="689.5" y="150" width="150" height="100" as="geometry"/>
                </mxCell>
                <mxCell id="42" style="edgeStyle=none;html=1;entryX=0.5;entryY=0;entryDx=0;entryDy=0;labelBackgroundColor=#FFFFFF;strokeColor=#000000;fontSize=15;fontColor=#2b2b2b;" parent="1" source="27" target="39" edge="1">
                    <mxGeometry relative="1" as="geometry"/>
                </mxCell>
                <mxCell id="27" value="&lt;span style=&quot;font-size: 14px;&quot;&gt;Граємо у&amp;nbsp;&lt;/span&gt;&lt;span style=&quot;font-size: 14px;&quot;&gt;accuracy&lt;/span&gt;" style="rounded=1;whiteSpace=wrap;html=1;fontColor=#000000;fillColor=#bebebe;" parent="1" vertex="1">
                    <mxGeometry x="704.5" y="290" width="120" height="60" as="geometry"/>
                </mxCell>
                <mxCell id="44" style="edgeStyle=none;html=1;exitX=0.5;exitY=1;exitDx=0;exitDy=0;entryX=0;entryY=0.5;entryDx=0;entryDy=0;labelBackgroundColor=#FFFFFF;strokeColor=#000000;fontSize=15;fontColor=#2b2b2b;" parent="1" source="36" target="43" edge="1">
                    <mxGeometry relative="1" as="geometry">
                        <Array as="points">
                            <mxPoint x="390" y="550"/>
                        </Array>
                    </mxGeometry>
                </mxCell>
                <mxCell id="58" style="edgeStyle=none;html=1;labelBackgroundColor=#FFFFFF;strokeColor=#000000;fontSize=15;fontColor=#000000;" parent="1" edge="1">
                    <mxGeometry relative="1" as="geometry">
                        <mxPoint x="450" y="50" as="targetPoint"/>
                        <Array as="points">
                            <mxPoint x="478" y="590"/>
                            <mxPoint x="910" y="590"/>
                            <mxPoint x="910" y="465"/>
                            <mxPoint x="1020" y="465"/>
                            <mxPoint x="1020" y="50"/>
                            <mxPoint x="520" y="50"/>
                        </Array>
                        <mxPoint x="478" y="465" as="sourcePoint"/>
                    </mxGeometry>
                </mxCell>
                <mxCell id="xB4fPKsQVMG9AXmd_6wl-74" value="&lt;font style=&quot;background-color: rgb(255, 255, 255);&quot; color=&quot;#000000&quot;&gt;Так&lt;/font&gt;" style="edgeLabel;html=1;align=center;verticalAlign=middle;resizable=0;points=[];" parent="58" vertex="1" connectable="0">
                    <mxGeometry x="-0.9571" y="1" relative="1" as="geometry">
                        <mxPoint as="offset"/>
                    </mxGeometry>
                </mxCell>
                <mxCell id="36" value="Маскимальний час&amp;nbsp;&lt;br&gt;набрався" style="rhombus;whiteSpace=wrap;html=1;fontSize=14;fontColor=#000000;fillColor=#bebebe;" parent="1" vertex="1">
                    <mxGeometry x="302.5" y="410" width="175" height="110" as="geometry"/>
                </mxCell>
                <mxCell id="45" style="edgeStyle=none;html=1;exitX=0.5;exitY=1;exitDx=0;exitDy=0;entryX=0;entryY=0.5;entryDx=0;entryDy=0;labelBackgroundColor=#FFFFFF;strokeColor=#000000;fontSize=15;fontColor=#2b2b2b;" parent="1" source="38" target="43" edge="1">
                    <mxGeometry relative="1" as="geometry">
                        <Array as="points">
                            <mxPoint x="575" y="550"/>
                        </Array>
                    </mxGeometry>
                </mxCell>
                <mxCell id="52" value="&lt;span style=&quot;background-color: rgb(255, 255, 255);&quot;&gt;Ні&lt;/span&gt;" style="edgeLabel;html=1;align=center;verticalAlign=middle;resizable=0;points=[];fontSize=15;fontColor=#000000;" parent="45" vertex="1" connectable="0">
                    <mxGeometry x="-0.9508" y="1" relative="1" as="geometry">
                        <mxPoint x="304" y="9" as="offset"/>
                    </mxGeometry>
                </mxCell>
                <mxCell id="38" value="Доступний час&amp;nbsp;&lt;br&gt;закінчився" style="rhombus;whiteSpace=wrap;html=1;fontSize=14;fontColor=#000000;fillColor=#bebebe;" parent="1" vertex="1">
                    <mxGeometry x="487.5" y="410" width="175" height="110" as="geometry"/>
                </mxCell>
                <mxCell id="46" style="edgeStyle=none;html=1;entryX=0;entryY=0.5;entryDx=0;entryDy=0;labelBackgroundColor=#FFFFFF;strokeColor=#000000;fontSize=15;fontColor=#2b2b2b;exitX=0.5;exitY=1;exitDx=0;exitDy=0;" parent="1" source="39" target="43" edge="1">
                    <mxGeometry relative="1" as="geometry">
                        <Array as="points">
                            <mxPoint x="765" y="550"/>
                            <mxPoint x="880" y="550"/>
                        </Array>
                    </mxGeometry>
                </mxCell>
                <mxCell id="54" style="edgeStyle=none;html=1;exitX=0.995;exitY=0.501;exitDx=0;exitDy=0;entryX=1;entryY=0.5;entryDx=0;entryDy=0;labelBackgroundColor=#FFFFFF;strokeColor=#000000;fontSize=15;fontColor=#000000;exitPerimeter=0;" parent="1" target="3" edge="1">
                    <mxGeometry relative="1" as="geometry">
                        <Array as="points">
                            <mxPoint x="1020" y="465"/>
                            <mxPoint x="1020" y="50"/>
                            <mxPoint x="509" y="50"/>
                            <mxPoint x="527" y="50"/>
                        </Array>
                        <mxPoint x="850.125" y="465.1099999999999" as="sourcePoint"/>
                        <mxPoint x="457" y="50.00000000000023" as="targetPoint"/>
                    </mxGeometry>
                </mxCell>
                <mxCell id="39" value="Набої вичерпалися" style="rhombus;whiteSpace=wrap;html=1;fontSize=14;fontColor=#000000;fillColor=#bebebe;" parent="1" vertex="1">
                    <mxGeometry x="677" y="410" width="175" height="110" as="geometry"/>
                </mxCell>
                <mxCell id="47" style="edgeStyle=none;html=1;entryX=1;entryY=0.5;entryDx=0;entryDy=0;labelBackgroundColor=#FFFFFF;strokeColor=#000000;fontSize=15;fontColor=#2b2b2b;exitX=0.497;exitY=0.002;exitDx=0;exitDy=0;exitPerimeter=0;" parent="1" source="43" target="3" edge="1">
                    <mxGeometry relative="1" as="geometry">
                        <Array as="points">
                            <mxPoint x="1020" y="50"/>
                        </Array>
                        <mxPoint x="1020" y="490" as="sourcePoint"/>
                    </mxGeometry>
                </mxCell>
                <mxCell id="48" value="&lt;font style=&quot;background-color: rgb(255, 255, 255);&quot; color=&quot;#000000&quot;&gt;Так&lt;/font&gt;" style="edgeLabel;html=1;align=center;verticalAlign=middle;resizable=0;points=[];fontSize=15;fontColor=#2b2b2b;" parent="47" vertex="1" connectable="0">
                    <mxGeometry x="-0.1822" y="1" relative="1" as="geometry">
                        <mxPoint x="1" y="269" as="offset"/>
                    </mxGeometry>
                </mxCell>
                <mxCell id="71" style="edgeStyle=none;html=1;exitX=0.495;exitY=0.995;exitDx=0;exitDy=0;labelBackgroundColor=#FFFFFF;strokeColor=#000000;fontSize=15;fontColor=#000000;entryX=1;entryY=0.5;entryDx=0;entryDy=0;exitPerimeter=0;" parent="1" source="43" target="14" edge="1">
                    <mxGeometry relative="1" as="geometry">
                        <mxPoint x="450" y="300" as="targetPoint"/>
                        <Array as="points">
                            <mxPoint x="1020" y="640"/>
                            <mxPoint x="1130" y="640"/>
                            <mxPoint x="1130" y="250"/>
                            <mxPoint x="650" y="250"/>
                            <mxPoint x="480" y="250"/>
                            <mxPoint x="480" y="320"/>
                        </Array>
                    </mxGeometry>
                </mxCell>
                <mxCell id="72" style="edgeStyle=none;html=1;exitX=0.495;exitY=0.996;exitDx=0;exitDy=0;entryX=1;entryY=0.5;entryDx=0;entryDy=0;labelBackgroundColor=#FFFFFF;strokeColor=#000000;fontSize=15;fontColor=#000000;exitPerimeter=0;" parent="1" source="43" target="20" edge="1">
                    <mxGeometry relative="1" as="geometry">
                        <Array as="points">
                            <mxPoint x="1020" y="640"/>
                            <mxPoint x="1130" y="640"/>
                            <mxPoint x="1130" y="250"/>
                            <mxPoint x="670" y="250"/>
                            <mxPoint x="670" y="320"/>
                        </Array>
                    </mxGeometry>
                </mxCell>
                <mxCell id="73" value="Ні" style="edgeStyle=none;html=1;exitX=0.494;exitY=0.995;exitDx=0;exitDy=0;entryX=1;entryY=0.5;entryDx=0;entryDy=0;labelBackgroundColor=#FFFFFF;strokeColor=#000000;fontSize=15;fontColor=#000000;exitPerimeter=0;" parent="1" source="43" target="27" edge="1">
                    <mxGeometry x="-0.2804" relative="1" as="geometry">
                        <Array as="points">
                            <mxPoint x="1020" y="640"/>
                            <mxPoint x="1130" y="640"/>
                            <mxPoint x="1130" y="250"/>
                            <mxPoint x="870" y="250"/>
                            <mxPoint x="870" y="320"/>
                        </Array>
                        <mxPoint as="offset"/>
                    </mxGeometry>
                </mxCell>
                <mxCell id="43" value="Натиснули паузу&amp;nbsp;&lt;br&gt;та вихід до меню" style="rhombus;whiteSpace=wrap;html=1;fontSize=14;fontColor=#000000;fillColor=#bebebe;" parent="1" vertex="1">
                    <mxGeometry x="933" y="495" width="175" height="110" as="geometry"/>
                </mxCell>
                <mxCell id="66" style="edgeStyle=none;html=1;exitX=0.5;exitY=1;exitDx=0;exitDy=0;entryX=0.5;entryY=0;entryDx=0;entryDy=0;labelBackgroundColor=#FFFFFF;strokeColor=#000000;fontSize=15;fontColor=#000000;" parent="1" source="60" target="64" edge="1">
                    <mxGeometry relative="1" as="geometry">
                        <Array as="points"/>
                    </mxGeometry>
                </mxCell>
                <mxCell id="67" value="&lt;span style=&quot;background-color: rgb(255, 255, 255);&quot;&gt;Так&lt;/span&gt;" style="edgeLabel;html=1;align=center;verticalAlign=middle;resizable=0;points=[];fontSize=15;fontColor=#000000;" parent="66" vertex="1" connectable="0">
                    <mxGeometry x="0.3154" y="6" relative="1" as="geometry">
                        <mxPoint x="-6" y="-17" as="offset"/>
                    </mxGeometry>
                </mxCell>
                <mxCell id="69" style="edgeStyle=none;html=1;exitX=0;exitY=0.5;exitDx=0;exitDy=0;entryX=-0.004;entryY=0.137;entryDx=0;entryDy=0;entryPerimeter=0;labelBackgroundColor=#FFFFFF;strokeColor=#000000;fontSize=15;fontColor=#000000;" parent="1" source="60" target="3" edge="1">
                    <mxGeometry relative="1" as="geometry">
                        <Array as="points">
                            <mxPoint y="465"/>
                            <mxPoint y="28"/>
                        </Array>
                    </mxGeometry>
                </mxCell>
                <mxCell id="70" value="&lt;span style=&quot;background-color: rgb(255, 255, 255);&quot;&gt;Ні&lt;/span&gt;" style="edgeLabel;html=1;align=center;verticalAlign=middle;resizable=0;points=[];fontSize=15;fontColor=#000000;" parent="69" vertex="1" connectable="0">
                    <mxGeometry x="-0.206" y="-6" relative="1" as="geometry">
                        <mxPoint x="-6" y="5" as="offset"/>
                    </mxGeometry>
                </mxCell>
                <mxCell id="60" value="Закриваємо вікно,&lt;br&gt;завершуємо гру" style="rhombus;whiteSpace=wrap;html=1;fontSize=14;fontColor=#000000;fillColor=#bebebe;" parent="1" vertex="1">
                    <mxGeometry x="120" y="410" width="175" height="110" as="geometry"/>
                </mxCell>
                <mxCell id="63" value="" style="ellipse;whiteSpace=wrap;html=1;aspect=fixed;labelBackgroundColor=#FFFFFF;fontSize=15;fontColor=#000000;fillColor=#000000;" parent="1" vertex="1">
                    <mxGeometry x="360" y="-90" width="60" height="60" as="geometry"/>
                </mxCell>
                <mxCell id="64" value="" style="ellipse;whiteSpace=wrap;html=1;aspect=fixed;labelBackgroundColor=#FFFFFF;fontSize=15;fontColor=#000000;fillColor=#FFFFFF;strokeColor=#000000;" parent="1" vertex="1">
                    <mxGeometry x="177.5" y="600" width="60" height="60" as="geometry"/>
                </mxCell>
                <mxCell id="65" value="" style="ellipse;whiteSpace=wrap;html=1;aspect=fixed;labelBackgroundColor=#FFFFFF;fontSize=15;fontColor=#000000;fillColor=#000000;strokeColor=#000000;" parent="1" vertex="1">
                    <mxGeometry x="190" y="612.5" width="35" height="35" as="geometry"/>
                </mxCell>
                <mxCell id="xB4fPKsQVMG9AXmd_6wl-78" value="" style="endArrow=classic;html=1;rounded=1;curved=0;exitX=1;exitY=0.5;exitDx=0;exitDy=0;entryX=1;entryY=0.5;entryDx=0;entryDy=0;strokeColor=#000000;" parent="1" source="38" target="3" edge="1">
                    <mxGeometry width="50" height="50" relative="1" as="geometry">
                        <mxPoint x="700" y="660" as="sourcePoint"/>
                        <mxPoint x="750" y="610" as="targetPoint"/>
                        <Array as="points">
                            <mxPoint x="663" y="590"/>
                            <mxPoint x="910" y="590"/>
                            <mxPoint x="910" y="465"/>
                            <mxPoint x="1020" y="465"/>
                            <mxPoint x="1020" y="50"/>
                        </Array>
                    </mxGeometry>
                </mxCell>
                <mxCell id="xB4fPKsQVMG9AXmd_6wl-79" value="&lt;span style=&quot;background-color: rgb(255, 255, 255);&quot;&gt;&lt;font color=&quot;#000000&quot;&gt;Так&lt;/font&gt;&lt;/span&gt;" style="edgeLabel;html=1;align=center;verticalAlign=middle;resizable=0;points=[];" parent="xB4fPKsQVMG9AXmd_6wl-78" vertex="1" connectable="0">
                    <mxGeometry x="-0.9433" y="1" relative="1" as="geometry">
                        <mxPoint as="offset"/>
                    </mxGeometry>
                </mxCell>
                <mxCell id="xB4fPKsQVMG9AXmd_6wl-82" value="&lt;font style=&quot;background-color: rgb(255, 255, 255);&quot; color=&quot;#000000&quot;&gt;Так&lt;/font&gt;" style="edgeLabel;html=1;align=center;verticalAlign=middle;resizable=0;points=[];" parent="xB4fPKsQVMG9AXmd_6wl-78" vertex="1" connectable="0">
                    <mxGeometry x="-0.306" relative="1" as="geometry">
                        <mxPoint as="offset"/>
                    </mxGeometry>
                </mxCell>
            </root>
        </mxGraphModel>
    </diagram>
</mxfile>